<svg width="401" height="138" viewBox="0 0 401 138" fill="none" xmlns="http://www.w3.org/2000/svg">
<rect width="401" height="138" rx="60" fill="black"/>
<path d="M67.7051 54.8809H35.1855V62.6934C35.3158 62.6934 35.446 62.7585 35.5762 62.8887C35.7064 63.0189 35.8203 63.084 35.918 63.084C35.6576 63.084 35.5111 63.0677 35.4785 63.0352C35.4785 62.8724 37.9036 62.3516 42.7539 61.4727C44.5443 61.1471 46.3184 60.9844 48.0762 60.9844C55.4004 60.9844 60.1042 63.0352 62.1875 67.1367C63.5872 69.8711 64.2871 75.3887 64.2871 83.6895V102.488C63.6035 102.228 61.0156 101.17 56.5234 99.3145C56.5234 98.2728 56.3118 97.6055 55.8887 97.3125C54.1634 98.3216 52.7474 99.0866 51.6406 99.6074C48.125 101.268 44.0397 102.098 39.3848 102.098C32.972 102.098 28.0241 100.079 24.541 96.043C22.8483 94.0898 22.002 91.9089 22.002 89.5C22.002 86.7982 23.3366 84.1126 26.0059 81.4434C31.1816 76.2676 37.6107 73.6797 45.293 73.6797C49.9479 73.6797 53.6914 74.7539 56.5234 76.9023V72.4102C55.0911 70.5872 53.6914 69.3665 52.3242 68.748C50.9896 68.1296 49.1504 67.8529 46.8066 67.918C41.5658 68.0156 36.7643 68.9759 32.4023 70.7988C30.4492 71.6126 28.5449 72.3451 26.6895 72.9961V69.3828C27.1126 69.0247 27.7311 68.4876 28.5449 67.7715C28.6751 67.6087 28.7565 67.5111 28.7891 67.4785V54.8809H18.7793V49.0215H67.7051V54.8809ZM56.5234 85.7891C56.5234 84.3568 54.8145 83.071 51.3965 81.9316C48.5645 80.9876 46.2044 80.5156 44.3164 80.5156C37.4479 80.5156 31.9466 82.9896 27.8125 87.9375C26.1523 89.9232 25.3223 91.5508 25.3223 92.8203C26.0059 95.1966 28.6914 96.3848 33.3789 96.3848C39.4336 96.3848 44.9674 94.8711 49.9805 91.8438C54.3424 89.207 56.5234 87.1888 56.5234 85.7891ZM119.561 54.8809H67.0703V49.0215H119.561V54.8809ZM109.062 76.3164C109.062 68.5039 105.368 64.5977 97.9785 64.5977C92.5098 64.5977 87.9362 67.4622 84.2578 73.1914C81.0026 78.2695 79.375 83.6732 79.375 89.4023V103.611L71.3672 99.4121V62.6934H79.7656V68.5039L84.1113 65.2324C87.9525 62.3353 92.0052 60.8867 96.2695 60.8867C102.064 60.8867 106.865 63.1328 110.674 67.625C114.255 71.8568 116.045 76.9186 116.045 82.8105C116.045 90.1999 112.92 97.2962 106.67 104.1L97.2461 98.1914C100.176 95.2943 102.666 92.625 104.717 90.1836C107.614 86.7331 109.062 82.1107 109.062 76.3164ZM173.516 54.8809H132.646V86.1797C132.646 88.263 133.086 90.4115 133.965 92.625C135.755 97.1497 138.717 99.4121 142.852 99.4121C148.418 99.4121 152.65 97.0846 155.547 92.4297C157.793 88.849 158.916 85.4798 158.916 82.3223V62.8887H168.828V104.49C168.047 104.035 166.582 103.335 164.434 102.391L158.818 99.9004V95.9941C154.977 98.7936 151.689 100.568 148.955 101.316C147.295 101.772 145.326 102 143.047 102C135.82 102 130.173 98.8262 126.104 92.4785C124.248 89.5814 123.32 86.4238 123.32 83.0059V54.8809H117.412V49.0215H173.516V54.8809ZM226.641 54.8809H189.531V73.0938C192.233 69.7409 195.456 66.8438 199.199 64.4023C201.738 62.7422 204.277 61.9121 206.816 61.9121C211.96 61.9121 216.289 63.8815 219.805 67.8203C223.027 71.4336 224.639 75.3561 224.639 79.5879C224.639 84.4707 222.279 89.4349 217.559 94.4805C212.839 99.4935 208.053 102 203.203 102C200.729 102 198.125 100.893 195.391 98.6797C194.544 97.9961 192.461 95.9616 189.141 92.5762V102.586L180.645 98.9238V54.8809H172.637V49.0215H180.645C180.645 41.2741 178.48 33.6732 174.15 26.2188C170.732 20.3268 167.461 16.0137 164.336 13.2793H175.029C178.252 16.0137 181.068 19.4805 183.477 23.6797C187.513 30.7435 189.531 39.1908 189.531 49.0215H226.641V54.8809ZM219.219 84.6172C219.219 81.5898 217.526 78.3184 214.141 74.8027C210.365 70.8639 205.986 68.8945 201.006 68.8945C197.881 68.8945 194.951 70.4408 192.217 73.5332C191.143 74.7702 190.605 75.6979 190.605 76.3164C190.605 79.0182 191.81 82.1432 194.219 85.6914C199.297 93.1784 204.538 96.9219 209.941 96.9219C213.359 96.9219 216.029 94.7246 217.949 90.3301C218.796 88.4095 219.219 86.5052 219.219 84.6172ZM279.863 54.8809H240.459V69.5781C244.007 65.7044 247.295 63.2142 250.322 62.1074C252.015 61.4889 253.919 61.1797 256.035 61.1797C263.978 61.1797 269.919 65.0859 273.857 72.8984C275.583 76.3164 276.445 79.6855 276.445 83.0059C276.445 89.0605 273.955 94.5293 268.975 99.4121C267.314 101.04 266.077 102.163 265.264 102.781L257.256 97.9961C259.274 95.8802 261.569 93.276 264.141 90.1836C267.038 86.7005 268.503 82.306 268.535 77C268.568 73.8424 267.852 71.2057 266.387 69.0898C264.727 66.6159 262.383 65.4115 259.355 65.4766C256.556 65.5417 253.561 66.5996 250.371 68.6504C247.507 70.4733 245.13 72.6543 243.242 75.1934C241.191 77.9277 240.166 80.5645 240.166 83.1035V102.488L231.035 97.6055V54.8809H225.664V49.0215H231.035C231.035 39.4512 228.545 31.2806 223.564 24.5098C220.57 20.4408 217.803 17.5762 215.264 15.916L225.127 15.8184C230.596 18.8132 234.941 25.2747 238.164 35.2031C239.694 39.9232 240.459 44.5293 240.459 49.0215H279.863V54.8809ZM327.08 54.8809H294.561V62.6934C294.691 62.6934 294.821 62.7585 294.951 62.8887C295.081 63.0189 295.195 63.084 295.293 63.084C295.033 63.084 294.886 63.0677 294.854 63.0352C294.854 62.8724 297.279 62.3516 302.129 61.4727C303.919 61.1471 305.693 60.9844 307.451 60.9844C314.775 60.9844 319.479 63.0352 321.562 67.1367C322.962 69.8711 323.662 75.3887 323.662 83.6895V102.488C322.979 102.228 320.391 101.17 315.898 99.3145C315.898 98.2728 315.687 97.6055 315.264 97.3125C313.538 98.3216 312.122 99.0866 311.016 99.6074C307.5 101.268 303.415 102.098 298.76 102.098C292.347 102.098 287.399 100.079 283.916 96.043C282.223 94.0898 281.377 91.9089 281.377 89.5C281.377 86.7982 282.712 84.1126 285.381 81.4434C290.557 76.2676 296.986 73.6797 304.668 73.6797C309.323 73.6797 313.066 74.7539 315.898 76.9023V72.4102C314.466 70.5872 313.066 69.3665 311.699 68.748C310.365 68.1296 308.525 67.8529 306.182 67.918C300.941 68.0156 296.139 68.9759 291.777 70.7988C289.824 71.6126 287.92 72.3451 286.064 72.9961V69.3828C286.488 69.0247 287.106 68.4876 287.92 67.7715C288.05 67.6087 288.132 67.5111 288.164 67.4785V54.8809H278.154V49.0215H327.08V54.8809ZM315.898 85.7891C315.898 84.3568 314.189 83.071 310.771 81.9316C307.939 80.9876 305.579 80.5156 303.691 80.5156C296.823 80.5156 291.322 82.9896 287.188 87.9375C285.527 89.9232 284.697 91.5508 284.697 92.8203C285.381 95.1966 288.066 96.3848 292.754 96.3848C298.809 96.3848 304.342 94.8711 309.355 91.8438C313.717 89.207 315.898 87.1888 315.898 85.7891ZM387.529 49.0215L387.432 54.8809H382.451V64.207C381.865 65.3789 380.498 67.8529 378.35 71.6289L361.016 102.098C358.118 102.098 354.326 99.8027 349.639 95.2129C344.495 90.1999 341.924 84.6335 341.924 78.5137C341.924 75.3887 342.933 72.4753 344.951 69.7734C345.863 68.5365 346.318 67.6087 346.318 66.9902C346.318 65.8509 345.358 65.2812 343.438 65.2812C342.005 65.2812 340.622 65.8672 339.287 67.0391C338.799 67.4622 337.741 68.6178 336.113 70.5059L329.814 64.793C331.963 62.9701 334.062 61.847 336.113 61.4238C337.122 61.196 338.424 61.082 340.02 61.082C348.841 60.9844 353.252 65.6882 353.252 75.1934C353.252 76.4629 353.105 78.3672 352.812 80.9062C352.552 83.4453 352.422 85.3496 352.422 86.6191C352.422 91.7624 353.333 94.5618 355.156 95.0176C356.165 95.0176 357.354 93.7806 358.721 91.3066L373.613 64.4023V54.8809H326.152V49.0215H387.529Z" fill="url(#paint0_linear_119_48)"/>
<defs>
<linearGradient id="paint0_linear_119_48" x1="390" y1="75" x2="20" y2="75" gradientUnits="userSpaceOnUse">
<stop offset="0.077066" stop-color="#7EEC10" stop-opacity="0.73"/>
<stop offset="0.473228" stop-color="white"/>
<stop offset="0.847416" stop-color="#F84E06" stop-opacity="0.91"/>
</linearGradient>
</defs>
</svg>
